# xmcd CD database file
#
# Track frame offsets:
#	150
#	13331
#	28629
#	42223
#	51136
#	67470
#	84662
#	96744
#	110168
#	124918
#	146465
#	160258
#
# Disc length: 2362 seconds
#
# Revision: 0
# Processed by: cddbd v1.5.2PL0 Copyright (c) Steve Scherf et al.
# Submitted via: CDex 1.70beta2
#
DISCID=b509380c
DTITLE=Cool Cats - Almost live 2008
DYEAR=2008
DGENRE=Country
TTITLE0=Rita Mar
TTITLE1=Orange Blossom Special
TTITLE2=Deep River Blues
TTITLE3=Gotta lot a rythm in my soul
TTITLE4=Before you accuse me
TTITLE5=Orphan girl
TTITLE6=Uncle Pen
TTITLE7=Three cool cats
TTITLE8=I bawed my head and cry
TTITLE9=Fisherman's blues
TTITLE10=Roll in my sweet baby's arms
TTITLE11=Will the circle be unbroken
EXTD=YEAR: 2008
EXTT0=
EXTT1=
EXTT2=
EXTT3=
EXTT4=
EXTT5=
EXTT6=
EXTT7=
EXTT8=
EXTT9=
EXTT10=
EXTT11=
PLAYORDER=
